<svg width="0" height="0" class="hidden">
  <symbol fill="none" xmlns="http://www.w3.org/2000/svg" viewBox="0 0 24 24" id="upload">
    <path d="M7 10V9C7 6.23858 9.23858 4 12 4C14.7614 4 17 6.23858 17 9V10C19.2091 10 21 11.7909 21 14C21 15.4806 20.1956 16.8084 19 17.5M7 10C4.79086 10 3 11.7909 3 14C3 15.4806 3.8044 16.8084 5 17.5M7 10C7.43285 10 7.84965 10.0688 8.24006 10.1959M12 12V21M12 12L15 15M12 12L9 15" stroke="#000000" stroke-width="1.5" stroke-linecap="round" stroke-linejoin="round"></path>
  </symbol>
  <symbol xmlns="http://www.w3.org/2000/svg" xmlns:xlink="http://www.w3.org/1999/xlink" aria-hidden="true" role="img" preserveAspectRatio="xMidYMid meet" viewBox="0 0 64 64" id="EN-flag-icon">
    <g fill="#2a5f9e">
      <path d="M22 60.3V46.5l-10.3 7.6c2.9 2.7 6.4 4.8 10.3 6.2"></path>
      <path d="M42 60.3c3.9-1.4 7.4-3.5 10.3-6.2L42 46.4v13.9"></path>
      <path d="M3.7 42c.3 1 .7 1.9 1.2 2.9L8.8 42H3.7"></path>
      <path d="M55.2 42l3.9 2.9c.4-.9.8-1.9 1.2-2.9h-5.1"></path>
    </g>
    <g fill="#ffffff">
      <path d="M23.5 38H2.6c.3 1.4.7 2.7 1.1 4h5.1l-3.9 2.9c.8 1.7 1.7 3.2 2.8 4.7L18 42h4v2l-11.7 8.6l1.4 1.4L22 46.5v13.8c1.3.5 2.6.8 4 1.1V38h-2.5"></path>
      <path d="M61.4 38H38v23.4c1.4-.3 2.7-.7 4-1.1V46.5L52.3 54c1.4-1.3 2.6-2.7 3.8-4.2L45.4 42h6.8l6.1 4.5c.3-.5.6-1.1.8-1.6L55.2 42h5.1c.4-1.3.8-2.6 1.1-4"></path>
    </g>
    <g fill="#ed4c5c">
      <path d="M7.7 49.6c.8 1.1 1.6 2.1 2.5 3.1L22 44.1v-2h-4L7.7 49.6"></path>
      <path d="M45.5 42l10.7 7.8c.4-.5.7-1 1.1-1.5c.1-.1.1-.2.2-.2c.3-.5.7-1.1 1-1.6L52.2 42h-6.7"></path>
    </g>
    <g fill="#2a5f9e">
      <path d="M42 3.7v13.8l10.3-7.6C49.4 7.2 45.9 5.1 42 3.7"></path>
      <path d="M22 3.7c-3.9 1.4-7.4 3.5-10.3 6.2L22 17.6V3.7"></path>
      <path d="M60.3 22c-.3-1-.7-1.9-1.2-2.9L55.2 22h5.1"></path>
      <path d="M8.8 22l-3.9-2.9c-.4 1-.8 1.9-1.2 2.9h5.1"></path>
    </g>
    <g fill="#ffffff">
      <path d="M40.5 26h20.8c-.3-1.4-.7-2.7-1.1-4h-5.1l3.9-2.9c-.8-1.7-1.7-3.2-2.8-4.7L46 22h-4v-2l11.7-8.6l-1.4-1.4L42 17.5V3.7c-1.3-.5-2.6-.8-4-1.1V26h2.5"></path>
      <path d="M2.6 26H26V2.6c-1.4.3-2.7.7-4 1.1v13.8L11.7 10c-1.4 1.3-2.6 2.7-3.8 4.2L18.6 22h-6.8l-6.1-4.5c-.3.5-.6 1.1-.8 1.6L8.8 22H3.7c-.4 1.3-.8 2.6-1.1 4"></path>
    </g>
    <g fill="#ed4c5c">
      <path d="M56.3 14.4c-.8-1.1-1.6-2.1-2.5-3.1L42 19.9v2h4l10.3-7.5"></path>
      <path d="M18.5 22L7.9 14.2c-.4.5-.7 1-1.1 1.5c-.1.1-.1.2-.2.2c-.3.5-.7 1.1-1 1.6l6.1 4.5h6.8"></path>
      <path d="M61.4 26H38V2.6c-1.9-.4-3.9-.6-6-.6s-4.1.2-6 .6V26H2.6c-.4 1.9-.6 3.9-.6 6s.2 4.1.6 6H26v23.4c1.9.4 3.9.6 6 .6s4.1-.2 6-.6V38h23.4c.4-1.9.6-3.9.6-6s-.2-4.1-.6-6"></path>
    </g>
  </symbol>
  <symbol xmlns="http://www.w3.org/2000/svg" xmlns:xlink="http://www.w3.org/1999/xlink" aria-hidden="true" role="img" preserveAspectRatio="xMidYMid meet" viewBox="0 0 64 64" id="FR-flag-icon">
    <path d="M1.9 32c0 13.1 8.4 24.2 20 28.3V3.7C10.3 7.8 1.9 18.9 1.9 32z" fill="#428bc1"></path>
    <path d="M61.9 32c0-13.1-8.3-24.2-20-28.3v56.6c11.7-4.1 20-15.2 20-28.3" fill="#ed4c5c"></path>
    <path d="M21.9 60.3c3.1 1.1 6.5 1.7 10 1.7s6.9-.6 10-1.7V3.7C38.8 2.6 35.5 2 31.9 2s-6.9.6-10 1.7v56.6" fill="#ffffff"></path>
  </symbol>
  <symbol xmlns="http://www.w3.org/2000/svg" xmlns:xlink="http://www.w3.org/1999/xlink" aria-hidden="true" role="img" preserveAspectRatio="xMidYMid meet" viewBox="0 0 64 64" id="UK-flag-icon">
    <path d="M32 62c16.6 0 30-13.4 30-30H2c0 16.6 13.4 30 30 30z" fill="#ffe62e"></path>
    <path d="M32 2C15.4 2 2 15.4 2 32h60C62 15.4 48.6 2 32 2z" fill="#428bc1"></path>
  </symbol>
  <symbol fill="#000000" xmlns="http://www.w3.org/2000/svg" viewBox="0 0 16 16" id="file">
    <path d="M13.13 4.13 9.37.37A1.26 1.26 0 0 0 8.48 0H3.75A1.25 1.25 0 0 0 2.5 1.25v13.5A1.25 1.25 0 0 0 3.75 16h8.5a1.25 1.25 0 0 0 1.25-1.25V5a1.26 1.26 0 0 0-.37-.87zm-.88 10.62h-8.5V1.25h3.48V5a1.25 1.25 0 0 0 1.25 1.27h3.77zm0-9.73H8.48V1.25L12.25 5z"></path>
    <path d="M5 7.5h6v1.25H5zM5 10h6v1.25H5z"></path>
  </symbol>
  <symbol fill="none" xmlns="http://www.w3.org/2000/svg" viewBox="0 0 24 24" id="tick">
    <path d="M4.89163 13.2687L9.16582 17.5427L18.7085 8" stroke="#000000" stroke-width="2.5" stroke-linecap="round" stroke-linejoin="round"></path>
  </symbol>
</svg>
